<svg width="400" height="400" viewBox="0 0 400 400" xmlns="http://www.w3.org/2000/svg">
  <!-- Main fish head shape -->
  <path d="M100 150 
           L250 50
           C300 50, 320 80, 320 100
           L320 300
           C320 320, 300 350, 250 350
           L100 250
           C80 230, 70 200, 70 200
           C70 200, 80 170, 100 150Z" 
        fill="black"/>
  
  <!-- Eye socket -->
  <path d="M140 160
           A40 40 0 0 1 220 160
           A40 40 0 0 1 140 160Z"
        fill="white"/>
  
  <!-- Jaw teeth -->
  <path d="M180 220
           L220 220
           L240 240
           L200 260
           L160 240
           L180 220Z"
        fill="white"/>
  
  <!-- Top spikes -->
  <path d="M250 50
           L270 30
           L290 45
           L310 25
           L320 40
           L330 20"
        fill="black"/>
  
  <!-- Gray accent line -->
  <path d="M320 100
           Q340 80, 350 60"
        stroke="gray"
        stroke-width="10"
        fill="none"/>
</svg>


